<?xml version="1.0" standalone="no"?><!DOCTYPE svg PUBLIC "-//W3C//DTD SVG 1.1//EN" "http://www.w3.org/Graphics/SVG/1.1/DTD/svg11.dtd"><svg height="1024" node-id="1" sillyvg="true" template-height="1024" template-width="1024" version="1.1" viewBox="0 0 1024 1024" width="1024" xmlns="http://www.w3.org/2000/svg" xmlns:xlink="http://www.w3.org/1999/xlink"><defs node-id="212"></defs><g node-id="783"><g node-id="835"><g node-id="887"><path d="M 858.00 835.35 L 856.02 832.73 L 846.00 829.12 L 817.78 824.52 L 756.80 819.35 L 650.50 814.40 L 512.00 812.55 L 373.84 814.40 L 267.60 819.35 L 206.36 824.52 L 178.04 829.12 L 167.98 832.73 L 166.00 835.35 L 167.94 837.85 L 177.92 841.37 L 206.21 845.98 L 267.60 851.35 L 374.15 856.01 L 512.00 857.75 L 650.20 856.01 L 756.80 851.35 L 817.93 845.98 L 846.12 841.37 L 856.07 837.85 L 858.00 835.35 Z" fill="#e2cfc1" fill-rule="nonzero" group-id="1,53,105" node-id="220" stroke="none" target-height="45.19995" target-width="692" target-x="166.00012" target-y="812.55005"></path></g></g></g><g node-id="784"><g node-id="836"><g node-id="888"><path d="M 799.20 242.55 L 797.21 232.16 L 791.20 223.35 L 782.39 217.34 L 772.00 215.35 L 467.60 216.15 L 457.21 218.44 L 448.40 224.55 L 442.39 233.36 L 440.40 243.75 L 442.40 810.55 L 444.39 820.94 L 450.40 829.75 L 459.21 835.76 L 469.60 837.75 L 773.60 836.55 L 784.26 834.52 L 792.80 828.55 L 798.77 820.01 L 800.80 809.35 L 799.20 242.55 Z" fill="#96c4ea" fill-rule="nonzero" group-id="2,54,106" node-id="231" stroke="none" target-height="622.4" target-width="360.3999" target-x="440.40002" target-y="215.34999"></path></g></g></g><g node-id="785"><g node-id="837"><g node-id="889"><path d="M 767.20 242.55 L 765.21 232.16 L 759.20 223.35 L 750.39 217.34 L 740.00 215.35 L 435.60 216.15 L 425.21 218.44 L 416.40 224.55 L 410.39 233.36 L 408.40 243.75 L 410.40 810.55 L 412.39 820.94 L 418.40 829.75 L 427.21 835.76 L 437.60 837.75 L 741.60 836.55 L 752.26 834.52 L 760.80 828.55 L 766.77 820.01 L 768.80 809.35 L 767.20 242.55 Z" fill="#b9ddff" fill-rule="nonzero" group-id="3,55,107" node-id="242" stroke="none" target-height="622.4" target-width="360.3999" target-x="408.40002" target-y="215.34999"></path></g></g></g><g node-id="786"><g node-id="838"><g node-id="890"><path d="M 739.20 748.95 L 737.60 254.15 L 436.00 254.95 L 437.20 749.75 L 739.20 748.95 Z" fill="#ffecb4" fill-rule="nonzero" group-id="4,56,108" node-id="253" stroke="none" target-height="495.6" target-width="303.19995" target-x="436.00012" target-y="254.15"></path></g></g></g><g node-id="787"><g node-id="839"><g node-id="891"><path d="M 459.60 336.55 L 513.20 336.55 L 513.20 283.75 L 459.60 283.75 L 459.60 336.55 Z" fill="#fbbf92" fill-rule="nonzero" group-id="5,57,109" node-id="264" stroke="none" target-height="52.799988" target-width="53.600006" target-x="459.6" target-y="283.75"></path></g></g></g><g node-id="788"><g node-id="840"><g node-id="892"><path d="M 527.60 336.55 L 581.20 336.55 L 581.20 283.75 L 527.60 283.75 L 527.60 336.55 Z" fill="#fbbf92" fill-rule="nonzero" group-id="6,58,110" node-id="275" stroke="none" target-height="52.799988" target-width="53.600037" target-x="527.6" target-y="283.75"></path></g></g></g><g node-id="789"><g node-id="841"><g node-id="893"><path d="M 595.60 336.55 L 648.80 336.55 L 648.80 283.75 L 595.60 283.75 L 595.60 336.55 Z" fill="#fbbf92" fill-rule="nonzero" group-id="7,59,111" node-id="286" stroke="none" target-height="52.799988" target-width="53.200012" target-x="595.6" target-y="283.75"></path></g></g></g><g node-id="790"><g node-id="842"><g node-id="894"><path d="M 663.20 336.55 L 716.80 336.55 L 716.80 283.75 L 663.20 283.75 L 663.20 336.55 Z" fill="#fbbf92" fill-rule="nonzero" group-id="8,60,112" node-id="297" stroke="none" target-height="52.799988" target-width="53.600037" target-x="663.2" target-y="283.75"></path></g></g></g><g node-id="791"><g node-id="843"><g node-id="895"><path d="M 459.60 410.95 L 513.20 410.95 L 513.20 358.15 L 459.60 358.15 L 459.60 410.95 Z" fill="#fbbf92" fill-rule="nonzero" group-id="9,61,113" node-id="308" stroke="none" target-height="52.799988" target-width="53.600006" target-x="459.6" target-y="358.15"></path></g></g></g><g node-id="792"><g node-id="844"><g node-id="896"><path d="M 527.60 410.95 L 581.20 410.95 L 581.20 358.15 L 527.60 358.15 L 527.60 410.95 Z" fill="#fbbf92" fill-rule="nonzero" group-id="10,62,114" node-id="319" stroke="none" target-height="52.799988" target-width="53.600037" target-x="527.6" target-y="358.15"></path></g></g></g><g node-id="793"><g node-id="845"><g node-id="897"><path d="M 595.60 410.95 L 648.80 410.95 L 648.80 358.15 L 595.60 358.15 L 595.60 410.95 Z" fill="#fbbf92" fill-rule="nonzero" group-id="11,63,115" node-id="330" stroke="none" target-height="52.799988" target-width="53.200012" target-x="595.6" target-y="358.15"></path></g></g></g><g node-id="794"><g node-id="846"><g node-id="898"><path d="M 663.20 410.95 L 716.80 410.95 L 716.80 358.15 L 663.20 358.15 L 663.20 410.95 Z" fill="#fbbf92" fill-rule="nonzero" group-id="12,64,116" node-id="341" stroke="none" target-height="52.799988" target-width="53.600037" target-x="663.2" target-y="358.15"></path></g></g></g><g node-id="795"><g node-id="847"><g node-id="899"><path d="M 459.60 484.95 L 513.20 484.95 L 513.20 432.55 L 459.60 432.55 L 459.60 484.95 Z" fill="#fbbf92" fill-rule="nonzero" group-id="13,65,117" node-id="352" stroke="none" target-height="52.399994" target-width="53.600006" target-x="459.6" target-y="432.55"></path></g></g></g><g node-id="796"><g node-id="848"><g node-id="900"><path d="M 527.60 484.95 L 581.20 484.95 L 581.20 432.55 L 527.60 432.55 L 527.60 484.95 Z" fill="#fbbf92" fill-rule="nonzero" group-id="14,66,118" node-id="363" stroke="none" target-height="52.399994" target-width="53.600037" target-x="527.6" target-y="432.55"></path></g></g></g><g node-id="797"><g node-id="849"><g node-id="901"><path d="M 595.60 484.95 L 648.80 484.95 L 648.80 432.55 L 595.60 432.55 L 595.60 484.95 Z" fill="#fbbf92" fill-rule="nonzero" group-id="15,67,119" node-id="374" stroke="none" target-height="52.399994" target-width="53.200012" target-x="595.6" target-y="432.55"></path></g></g></g><g node-id="798"><g node-id="850"><g node-id="902"><path d="M 663.20 484.95 L 716.80 484.95 L 716.80 432.55 L 663.20 432.55 L 663.20 484.95 Z" fill="#fbbf92" fill-rule="nonzero" group-id="16,68,120" node-id="385" stroke="none" target-height="52.399994" target-width="53.600037" target-x="663.2" target-y="432.55"></path></g></g></g><g node-id="799"><g node-id="851"><g node-id="903"><path d="M 459.60 559.35 L 513.20 559.35 L 513.20 506.55 L 459.60 506.55 L 459.60 559.35 Z" fill="#fbbf92" fill-rule="nonzero" group-id="17,69,121" node-id="396" stroke="none" target-height="52.799988" target-width="53.600006" target-x="459.6" target-y="506.55"></path></g></g></g><g node-id="800"><g node-id="852"><g node-id="904"><path d="M 527.60 559.35 L 581.20 559.35 L 581.20 506.55 L 527.60 506.55 L 527.60 559.35 Z" fill="#fbbf92" fill-rule="nonzero" group-id="18,70,122" node-id="407" stroke="none" target-height="52.799988" target-width="53.600037" target-x="527.6" target-y="506.55"></path></g></g></g><g node-id="801"><g node-id="853"><g node-id="905"><path d="M 595.60 559.35 L 648.80 559.35 L 648.80 506.55 L 595.60 506.55 L 595.60 559.35 Z" fill="#fbbf92" fill-rule="nonzero" group-id="19,71,123" node-id="418" stroke="none" target-height="52.799988" target-width="53.200012" target-x="595.6" target-y="506.55"></path></g></g></g><g node-id="802"><g node-id="854"><g node-id="906"><path d="M 663.20 559.35 L 716.80 559.35 L 716.80 506.55 L 663.20 506.55 L 663.20 559.35 Z" fill="#fbbf92" fill-rule="nonzero" group-id="20,72,124" node-id="429" stroke="none" target-height="52.799988" target-width="53.600037" target-x="663.2" target-y="506.55"></path></g></g></g><g node-id="803"><g node-id="855"><g node-id="907"><path d="M 459.60 633.75 L 513.20 633.75 L 513.20 580.95 L 459.60 580.95 L 459.60 633.75 Z" fill="#fbbf92" fill-rule="nonzero" group-id="21,73,125" node-id="440" stroke="none" target-height="52.799988" target-width="53.600006" target-x="459.6" target-y="580.95"></path></g></g></g><g node-id="804"><g node-id="856"><g node-id="908"><path d="M 527.60 633.75 L 581.20 633.75 L 581.20 580.95 L 527.60 580.95 L 527.60 633.75 Z" fill="#fbbf92" fill-rule="nonzero" group-id="22,74,126" node-id="451" stroke="none" target-height="52.799988" target-width="53.600037" target-x="527.6" target-y="580.95"></path></g></g></g><g node-id="805"><g node-id="857"><g node-id="909"><path d="M 595.60 633.75 L 648.80 633.75 L 648.80 580.95 L 595.60 580.95 L 595.60 633.75 Z" fill="#fbbf92" fill-rule="nonzero" group-id="23,75,127" node-id="462" stroke="none" target-height="52.799988" target-width="53.200012" target-x="595.6" target-y="580.95"></path></g></g></g><g node-id="806"><g node-id="858"><g node-id="910"><path d="M 663.20 633.75 L 716.80 633.75 L 716.80 580.95 L 663.20 580.95 L 663.20 633.75 Z" fill="#fbbf92" fill-rule="nonzero" group-id="24,76,128" node-id="473" stroke="none" target-height="52.799988" target-width="53.600037" target-x="663.2" target-y="580.95"></path></g></g></g><g node-id="807"><g node-id="859"><g node-id="911"><path d="M 459.60 707.75 L 513.20 707.75 L 513.20 654.95 L 459.60 654.95 L 459.60 707.75 Z" fill="#fbbf92" fill-rule="nonzero" group-id="25,77,129" node-id="484" stroke="none" target-height="52.799988" target-width="53.600006" target-x="459.6" target-y="654.95"></path></g></g></g><g node-id="808"><g node-id="860"><g node-id="912"><path d="M 527.60 707.75 L 581.20 707.75 L 581.20 654.95 L 527.60 654.95 L 527.60 707.75 Z" fill="#fbbf92" fill-rule="nonzero" group-id="26,78,130" node-id="495" stroke="none" target-height="52.799988" target-width="53.600037" target-x="527.6" target-y="654.95"></path></g></g></g><g node-id="809"><g node-id="861"><g node-id="913"><path d="M 595.60 707.75 L 648.80 707.75 L 648.80 654.95 L 595.60 654.95 L 595.60 707.75 Z" fill="#fbbf92" fill-rule="nonzero" group-id="27,79,131" node-id="506" stroke="none" target-height="52.799988" target-width="53.200012" target-x="595.6" target-y="654.95"></path></g></g></g><g node-id="810"><g node-id="862"><g node-id="914"><path d="M 663.20 707.75 L 716.80 707.75 L 716.80 654.95 L 663.20 654.95 L 663.20 707.75 Z" fill="#fbbf92" fill-rule="nonzero" group-id="28,80,132" node-id="517" stroke="none" target-height="52.799988" target-width="53.600037" target-x="663.2" target-y="654.95"></path></g></g></g><g node-id="811"><g node-id="863"><g node-id="915"><path d="M 615.20 790.55 L 613.10 780.86 L 607.60 772.55 L 599.21 766.85 L 589.20 764.95 L 579.54 766.83 L 571.20 772.55 L 565.80 780.86 L 564.00 790.55 L 565.88 800.21 L 571.60 808.55 L 579.94 814.27 L 589.60 816.15 L 599.26 814.27 L 607.60 808.55 L 613.32 800.21 L 615.20 790.55 Z" fill="#4c9bf7" fill-rule="nonzero" group-id="29,81,133" node-id="528" stroke="none" target-height="51.200012" target-width="51.19995" target-x="564.0001" target-y="764.95"></path></g></g></g><g node-id="812"><g node-id="864"><g node-id="916"><path d="M 426.40 389.75 L 501.39 396.63 L 547.45 399.00 L 573.20 398.55 L 585.02 395.99 L 593.29 390.86 L 598.90 383.17 L 602.00 372.15 L 602.60 355.56 L 600.32 315.29 L 592.40 235.35 L 447.60 238.95 L 450.40 331.75 L 448.71 350.94 L 444.59 366.14 L 438.40 378.15 L 432.02 385.81 L 426.40 389.75 Z" fill="#000000" fill-opacity="0.09803922" fill-rule="nonzero" group-id="30,82,134" node-id="539" stroke="none" target-height="163.65152" target-width="176.20364" target-x="426.4" target-y="235.35"></path></g></g></g><g node-id="813"><g node-id="865"><g node-id="917"><path d="M 454.80 733.75 L 529.79 740.63 L 575.85 743.00 L 601.60 742.55 L 613.64 739.97 L 622.03 734.83 L 627.69 727.14 L 630.80 716.15 L 630.52 683.28 L 620.80 579.35 L 476.00 582.95 L 478.80 675.75 L 477.11 694.94 L 472.99 710.14 L 466.80 722.15 L 460.42 729.81 L 454.80 733.75 Z" fill="#000000" fill-opacity="0.09803922" fill-rule="nonzero" group-id="31,83,135" node-id="550" stroke="none" target-height="163.65149" target-width="176" target-x="454.8" target-y="579.35"></path></g></g></g><g node-id="814"><g node-id="866"><g node-id="918"><path d="M 590.40 571.35 L 616.15 571.80 L 662.21 569.43 L 737.20 562.55 L 731.58 558.61 L 725.20 550.95 L 719.01 538.94 L 714.89 523.74 L 713.20 504.55 L 716.00 411.75 L 571.20 408.55 L 561.48 512.13 L 561.20 544.95 L 564.31 555.94 L 569.97 563.63 L 578.36 568.77 L 590.40 571.35 Z" fill="#000000" fill-opacity="0.09803922" fill-rule="nonzero" group-id="32,84,136" node-id="561" stroke="none" target-height="163.25153" target-width="175.99994" target-x="561.2" target-y="408.55"></path></g></g></g><g node-id="815"><g node-id="867"><g node-id="919"><path d="M 591.60 362.55 L 592.65 343.61 L 593.20 290.95 L 592.40 235.35 L 447.60 230.15 L 447.60 325.35 L 446.34 344.60 L 442.79 360.98 L 437.20 374.95 L 431.31 384.38 L 426.40 389.75 L 562.40 388.95 L 576.00 383.75 L 584.24 377.56 L 589.26 370.57 L 591.60 362.55 Z" fill="#4c9bf7" fill-rule="nonzero" group-id="33,85,137" node-id="572" stroke="none" target-height="159.6" target-width="166.80005" target-x="426.40002" target-y="230.15"></path></g></g></g><g node-id="816"><g node-id="868"><g node-id="920"><path d="M 726.40 496.55 L 729.20 403.75 L 573.60 409.75 L 572.80 465.35 L 573.35 518.37 L 574.40 537.35 L 576.72 545.11 L 581.73 551.97 L 590.00 558.15 L 603.60 563.75 L 740.00 564.15 L 733.20 547.75 L 728.41 524.76 L 726.40 496.55 Z" fill="#e65895" fill-rule="nonzero" group-id="34,86,138" node-id="583" stroke="none" target-height="160.40002" target-width="167.2002" target-x="572.7999" target-y="403.75"></path></g></g></g><g node-id="817"><g node-id="869"><g node-id="921"><path d="M 466.00 718.95 L 459.60 735.35 L 595.60 734.55 L 609.20 729.35 L 617.44 723.16 L 622.45 716.17 L 624.80 708.15 L 625.85 689.21 L 626.40 636.55 L 625.60 580.95 L 470.00 574.95 L 471.60 612.55 L 472.80 667.75 L 470.79 695.96 L 466.00 718.95 Z" fill="#282e76" fill-rule="nonzero" group-id="35,87,139" node-id="594" stroke="none" target-height="160.40002" target-width="166.80005" target-x="459.59998" target-y="574.95"></path></g></g></g><g node-id="818"><g node-id="870"><g node-id="922"><path d="M 776.00 660.15 L 763.60 659.75 L 756.14 657.71 L 751.64 658.82 L 748.80 662.55 L 747.18 673.93 L 749.60 701.75 L 755.90 731.76 L 764.80 754.55 L 773.20 767.66 L 780.03 773.21 L 786.00 774.15 L 788.40 773.35 L 790.80 773.75 L 797.20 772.55 L 807.85 770.74 L 814.80 764.95 L 830.00 728.15 L 839.78 700.16 L 841.60 689.35 L 840.02 685.03 L 835.78 680.80 L 827.60 676.55 L 831.20 655.35 L 831.54 641.79 L 827.51 632.23 L 819.20 625.35 L 811.33 619.03 L 806.35 610.09 L 804.29 597.60 L 806.00 580.15 L 809.64 558.02 L 809.37 550.94 L 808.00 549.75 L 799.15 552.77 L 792.01 560.08 L 786.40 573.35 L 783.07 594.71 L 784.00 624.15 L 784.28 644.31 L 781.15 655.05 L 776.00 660.15 Z" fill="#78bbac" fill-rule="nonzero" group-id="36,88,140" node-id="605" stroke="none" target-height="224.40002" target-width="94.41504" target-x="747.18494" target-y="549.75"></path></g></g></g><g node-id="819"><g node-id="871"><g node-id="923"><path d="M 827.60 833.75 L 834.40 762.55 L 758.80 762.55 L 765.60 833.75 L 827.60 833.75 Z" fill="#3572e7" fill-rule="nonzero" group-id="37,89,141" node-id="616" stroke="none" target-height="71.19995" target-width="75.6001" target-x="758.7999" target-y="762.55005"></path></g></g></g><g node-id="820"><g node-id="872"><g node-id="924"><path d="M 405.60 401.75 L 411.60 405.75 L 419.49 397.08 L 422.39 391.47 L 422.40 387.75 L 419.97 384.78 L 415.60 384.55 L 413.37 386.22 L 409.20 393.35 L 405.60 401.75 Z" fill="#ffc190" fill-rule="nonzero" group-id="38,90,142" node-id="627" stroke="none" target-height="21.200012" target-width="16.800049" target-x="405.59998" target-y="384.55"></path></g></g></g><g node-id="821"><g node-id="873"><g node-id="925"><path d="M 262.80 442.15 L 271.56 450.36 L 280.00 455.75 L 350.80 490.15 L 413.20 405.35 L 406.40 399.75 L 348.40 457.35 L 283.60 430.15 L 272.40 426.55 L 264.95 426.76 L 259.87 429.29 L 256.40 434.15 L 262.80 442.15 Z" fill="#81236d" fill-rule="nonzero" group-id="39,91,143" node-id="638" stroke="none" target-height="90.399994" target-width="156.80005" target-x="256.40002" target-y="399.75"></path></g></g></g><g node-id="822"><g node-id="874"><g node-id="926"><path d="M 219.20 827.35 L 211.60 812.15 L 206.40 813.75 L 207.20 822.55 L 206.00 826.55 L 193.60 842.55 L 219.20 827.35 Z" fill="#1e0f46" fill-rule="nonzero" group-id="40,92,144" node-id="649" stroke="none" target-height="30.400024" target-width="25.600098" target-x="193.59998" target-y="812.15"></path></g></g></g><g node-id="823"><g node-id="875"><g node-id="927"><path d="M 215.20 803.35 L 211.20 819.75 L 239.60 828.95 L 224.00 816.15 L 222.00 812.55 L 220.80 803.75 L 215.20 803.35 Z" fill="#1e0f46" fill-rule="nonzero" group-id="41,93,145" node-id="660" stroke="none" target-height="25.599976" target-width="28.399902" target-x="211.20007" target-y="803.35004"></path></g></g></g><g node-id="824"><g node-id="876"><g node-id="928"><path d="M 237.60 575.75 L 172.80 571.75 L 169.20 702.55 L 205.60 821.75 L 216.80 816.95 L 197.60 710.55 L 237.60 575.75 Z" fill="#1f0b4c" fill-rule="nonzero" group-id="42,94,146" node-id="671" stroke="none" target-height="250" target-width="68.3999" target-x="169.20007" target-y="571.75"></path></g></g></g><g node-id="825"><g node-id="877"><g node-id="929"><path d="M 272.40 571.75 L 210.00 577.75 L 223.20 705.75 L 210.00 811.75 L 223.20 811.75 L 248.80 704.15 L 272.40 571.75 Z" fill="#351270" fill-rule="nonzero" group-id="43,95,147" node-id="682" stroke="none" target-height="240" target-width="62.399902" target-x="210.00012" target-y="571.75"></path></g></g></g><g node-id="826"><g node-id="878"><g node-id="930"><path d="M 166.00 408.95 L 169.20 591.35 L 276.00 582.15 L 267.20 503.75 L 288.00 425.35 L 240.80 408.95 L 166.00 408.95 Z" fill="#e65895" fill-rule="nonzero" group-id="44,96,148" node-id="693" stroke="none" target-height="182.40005" target-width="122" target-x="166.00012" target-y="408.94998"></path></g></g></g><g node-id="827"><g node-id="879"><g node-id="931"><path d="M 231.20 388.95 L 217.60 390.15 L 214.40 411.35 L 232.93 420.09 L 237.84 420.22 L 238.00 416.95 L 231.20 388.95 Z" fill="#f7a66f" fill-rule="nonzero" group-id="45,97,149" node-id="704" stroke="none" target-height="31.274933" target-width="23.600098" target-x="214.40002" target-y="388.94998"></path></g></g></g><g node-id="828"><g node-id="880"><g node-id="932"><path d="M 228.40 362.55 L 223.00 361.44 L 218.80 362.15 L 215.20 366.95 L 213.18 378.52 L 214.40 384.95 L 220.40 394.55 L 224.73 399.23 L 228.80 401.35 L 233.26 401.46 L 236.59 399.29 L 239.20 394.15 L 239.83 388.65 L 238.40 378.55 L 234.10 367.34 L 228.40 362.55 Z" fill="#f7a66f" fill-rule="nonzero" group-id="46,98,150" node-id="715" stroke="none" target-height="40.01526" target-width="26.65503" target-x="213.1759" target-y="361.44308"></path></g></g></g><g node-id="829"><g node-id="881"><g node-id="933"><path d="M 256.40 358.15 L 253.16 355.07 L 246.32 353.83 L 233.20 355.75 L 220.64 359.92 L 214.22 363.94 L 211.60 367.75 L 210.89 373.94 L 212.00 381.35 L 214.38 386.89 L 216.00 387.75 L 217.14 385.95 L 216.00 376.95 L 216.00 372.95 L 217.89 370.71 L 221.60 370.15 L 230.92 368.72 L 256.40 358.15 Z" fill="#2e3b57" fill-rule="nonzero" group-id="47,99,151" node-id="726" stroke="none" target-height="33.920013" target-width="45.50537" target-x="210.89465" target-y="353.83"></path></g></g></g><g node-id="830"><g node-id="882"><g node-id="934"><path d="M 218.00 391.35 L 221.60 396.95 L 226.90 400.89 L 232.80 401.35 L 237.53 398.78 L 239.60 391.75 L 239.20 384.55 L 238.00 390.15 L 235.86 394.11 L 233.20 395.75 L 228.66 395.99 L 222.80 394.15 L 218.00 391.35 Z" fill="#2e3b57" fill-rule="nonzero" group-id="48,100,152" node-id="737" stroke="none" target-height="16.800018" target-width="21.599854" target-x="218.00012" target-y="384.55"></path></g></g></g><g node-id="831"><g node-id="883"><g node-id="935"><path d="M 490.00 171.35 L 469.19 178.73 L 450.89 188.65 L 434.78 201.14 L 420.65 216.34 L 408.40 234.55 L 398.80 254.39 L 392.81 274.27 L 390.21 294.41 L 390.96 315.07 L 395.20 336.55 L 402.57 357.36 L 412.49 375.71 L 424.98 391.90 L 440.18 406.15 L 458.40 418.55 L 478.23 428.01 L 498.10 433.94 L 518.25 436.55 L 538.93 435.86 L 560.40 431.75 L 581.21 424.38 L 599.56 414.46 L 615.75 401.97 L 630.00 386.77 L 642.40 368.55 L 651.85 348.74 L 657.78 328.83 L 660.39 308.60 L 659.71 287.80 L 655.60 266.15 L 648.22 245.34 L 638.30 227.04 L 625.81 210.93 L 610.61 196.80 L 592.40 184.55 L 572.57 174.97 L 552.66 168.97 L 532.45 166.36 L 511.65 167.11 L 490.00 171.35 M 420.40 329.75 L 416.71 308.01 L 417.30 287.31 L 422.07 267.22 L 431.20 247.35 L 443.86 229.29 L 458.84 215.02 L 476.35 204.15 L 496.80 196.55 L 518.54 192.86 L 539.24 193.45 L 559.33 198.22 L 579.20 207.35 L 597.26 220.01 L 611.53 234.99 L 622.40 252.50 L 630.00 272.95 L 633.72 294.70 L 633.19 315.41 L 628.55 335.50 L 619.60 355.35 L 606.93 373.39 L 591.90 387.65 L 574.26 398.53 L 553.60 406.15 L 531.85 409.87 L 511.14 409.34 L 491.05 404.70 L 471.20 395.75 L 453.16 383.09 L 438.90 368.05 L 428.02 350.41 L 420.40 329.75 Z" fill="#282e76" fill-rule="nonzero" group-id="49,101,153" node-id="748" stroke="none" target-height="270.18076" target-width="270.18066" target-x="390.21252" target-y="166.36441"></path></g></g></g><g node-id="832"><g node-id="884"><g node-id="936"><path d="M 238.00 529.35 L 234.31 533.93 L 232.80 539.75 L 233.51 545.77 L 236.40 550.95 L 241.25 554.68 L 246.80 556.15 L 252.82 555.44 L 258.00 552.55 L 440.80 394.55 L 444.51 390.02 L 446.00 384.55 L 445.50 378.56 L 442.40 373.35 L 437.87 369.64 L 432.40 368.15 L 426.38 368.86 L 421.20 371.75 L 238.00 529.35 Z" fill="#282e76" fill-rule="nonzero" group-id="50,102,154" node-id="759" stroke="none" target-height="188.00003" target-width="213.2002" target-x="232.79993" target-y="368.15"></path></g></g></g><g node-id="833"><g node-id="885"><g node-id="937"><path d="M 311.20 469.75 L 314.00 476.15 L 325.60 473.37 L 331.16 470.37 L 333.20 467.35 L 332.65 463.62 L 329.20 460.95 L 326.26 461.24 L 318.80 464.95 L 311.20 469.75 Z" fill="#f7a66f" fill-rule="nonzero" group-id="51,103,155" node-id="770" stroke="none" target-height="15.200012" target-width="22" target-x="311.20007" target-y="460.94998"></path></g></g></g><path d="M 216.80 513.35 L 315.60 476.95 L 313.20 468.55 L 232.80 484.55 L 193.60 426.15 L 186.40 416.95 L 180.25 412.77 L 174.74 411.98 L 169.20 414.15 L 170.00 424.55 L 172.78 436.01 L 176.80 445.35 L 216.80 513.35 Z" fill="#81236d" fill-rule="nonzero" group-id="52,104,156" node-id="781" stroke="none" target-height="101.365875" target-width="146.3999" target-x="169.20007" target-y="411.98416"></path></svg>